<?xml version="1.0" encoding="UTF-8" standalone="no"?>
<svg
   xmlns:dc="http://purl.org/dc/elements/1.1/"
   xmlns:cc="http://creativecommons.org/ns#"
   xmlns:rdf="http://www.w3.org/1999/02/22-rdf-syntax-ns#"
   xmlns:svg="http://www.w3.org/2000/svg"
   xmlns="http://www.w3.org/2000/svg"
   width="51.492599"
   height="42.988838"
   viewBox="0 0 13.624083 11.374131"
   version="1.1"
   id="svg8">
  <defs
     id="defs2" />
  <metadata
     id="metadata5">
    <rdf:RDF>
      <cc:Work
         rdf:about="">
        <dc:format>image/svg+xml</dc:format>
        <dc:type
           rdf:resource="http://purl.org/dc/dcmitype/StillImage" />
        <dc:title></dc:title>
        <dc:creator>
          <cc:Agent>
            <dc:title>plehho</dc:title>
          </cc:Agent>
        </dc:creator>
      </cc:Work>
    </rdf:RDF>
  </metadata>
  <g
     id="layer1"
     transform="translate(0,-4.0043327e-4)">
    <path
       d="m 8.6147429,1.1107004 c -1.772,3.555 -1.8785,3.3862 -1.9518,3.8458 l -0.1155,0.7284 c -0.042,0.2664 -0.1465,0.5218 -0.3042,0.7416 l -3.3063,4.6141996 c -0.1687,0.2353 -0.453,0.3597 -0.7416,0.3242 -0.8949,-0.1111 -1.72750002,-0.7151 -2.11610002,-1.5210996 -0.1266,-0.262 -0.1,-0.5729 0.069,-0.8082 l 3.30630002,-4.6164 c 0.1576,-0.2198 0.3641,-0.3997 0.6039,-0.5262 l 0.6506,-0.3442 c 0.4108,-0.2176 0.2154,-0.2643 3.011,-3.08429997 0.022,-0.1065 0.022,-0.162 0.08,-0.1776 0.067,-0.015 0.1465,-0.022 0.1399,-0.1021 l -0.01,-0.1022 c 0,-0.042 0.029,-0.08 0.071,-0.08 0.1,0 0.2931,0.027 0.5684,0.222 0.2731,0.1977 0.3642,0.3731 0.393,0.4686 0.013,0.04 -0.013,0.082 -0.053,0.093 l -0.1,0.024 c -0.076,0.02 -0.056,0.098 -0.051,0.1643 0,0.062 -0.051,0.08 -0.1443,0.13539997 z m -3.8015,-0.29969997 c 0.076,0.02 0.055,0.098 0.051,0.1643 0,0.06 0.047,0.078 0.1421,0.13319997 0.1754,0.353 0.3398,0.6772 0.493,0.977 0.015,0.029 0.051,0.033 0.073,0.011 0.2487,-0.2665 0.5462,-0.5818 0.8993,-0.9459 0.029,-0.031 0.031,-0.078 0,-0.1088 -0.1777,-0.18209997 -0.3664,-0.37529997 -0.5685,-0.57959997 -0.022,-0.1043 -0.022,-0.1621 -0.08,-0.1776 -0.067,-0.018 -0.1465,-0.022 -0.1399,-0.1021 0.01,-0.073 0.031,-0.1799 -0.062,-0.18209999673 -0.1,0 -0.2931,0.0239999967 -0.5684,0.22199999673 -0.2731,0.1976 -0.3641,0.373 -0.393,0.4685 -0.031,0.093 0.08,0.1022 0.151,0.12 z m 8.6576001,8.22239997 -3.304,-4.6164 c -0.2931001,-0.4108 -0.5907001,-0.5196 -1.2524001,-0.8682 -0.2487,-0.131 -0.3153,-0.242 -0.6772,-0.6417 -0.022,-0.024 -0.064,-0.02 -0.08,0.011 -1.0281,1.9717 -1.0459,1.8385 -1.088,2.105 -0.038,0.2376 -0.029,0.4441 0.01,0.6617 0.042,0.2664 0.1465,0.5218 0.3042,0.7416 L 10.689643,11.0428 c 0.1688,0.2353 0.4486,0.3597 0.735,0.3264 0.8949,-0.1088 1.732,-0.7106 2.125,-1.5232996 0.1199,-0.2642 0.095,-0.5751 -0.075,-0.8126 z"
       id="path3931"
       style="display:inline;fill:#ececec;fill-opacity:1;stroke-width:0.264583" />
  </g>
</svg>
