<?xml version="1.0" encoding="UTF-8" standalone="no"?>
<svg
   xmlns:dc="http://purl.org/dc/elements/1.1/"
   xmlns:cc="http://creativecommons.org/ns#"
   xmlns:rdf="http://www.w3.org/1999/02/22-rdf-syntax-ns#"
   xmlns:svg="http://www.w3.org/2000/svg"
   xmlns="http://www.w3.org/2000/svg"
   width="755.90533"
   height="1030.5027"
   viewBox="0 0 199.99996 272.65384"
   version="1.1"
   id="svg8">
  <defs
     id="defs2">
    <clipPath
       clipPathUnits="userSpaceOnUse"
       id="clipPath848">
      <path
         d="M 0,0 H 566.929 V 772.877 H 0 Z"
         id="path846" />
    </clipPath>
    <linearGradient
       x1="0"
       y1="0"
       x2="1"
       y2="0"
       gradientUnits="userSpaceOnUse"
       gradientTransform="matrix(669.90289,-669.90289,-669.90289,-669.90289,-51.486896,721.38983)"
       spreadMethod="pad"
       id="linearGradient870">
      <stop
         style="stop-opacity:1;stop-color:#fbc707"
         offset="0"
         id="stop854" />
      <stop
         style="stop-opacity:1;stop-color:#fbc707"
         offset="0.067416"
         id="stop856" />
      <stop
         style="stop-opacity:1;stop-color:#ffffff"
         offset="0.157303"
         id="stop858" />
      <stop
         style="stop-opacity:1;stop-color:#fddf13"
         offset="0.38764"
         id="stop860" />
      <stop
         style="stop-opacity:1;stop-color:#ed6226"
         offset="0.52809"
         id="stop862" />
      <stop
         style="stop-opacity:1;stop-color:#ecc015"
         offset="0.707865"
         id="stop864" />
      <stop
         style="stop-opacity:1;stop-color:#ffffff"
         offset="0.837079"
         id="stop866" />
      <stop
         style="stop-opacity:1;stop-color:#f89c0e"
         offset="1"
         id="stop868" />
    </linearGradient>
    <clipPath
       clipPathUnits="userSpaceOnUse"
       id="clipPath880">
      <path
         d="M 547.268,19.843 H 19.66 v 733.192 h 527.608 z"
         id="path878" />
    </clipPath>
    <linearGradient
       x1="0"
       y1="0"
       x2="1"
       y2="0"
       gradientUnits="userSpaceOnUse"
       gradientTransform="matrix(630.3996,-630.3996,-630.3996,-630.3996,-31.735275,701.63818)"
       spreadMethod="pad"
       id="linearGradient902">
      <stop
         style="stop-opacity:1;stop-color:#f89c0e"
         offset="0"
         id="stop886" />
      <stop
         style="stop-opacity:1;stop-color:#f89c0e"
         offset="0.005618"
         id="stop888" />
      <stop
         style="stop-opacity:1;stop-color:#fbc707"
         offset="0.095506"
         id="stop890" />
      <stop
         style="stop-opacity:1;stop-color:#ffffff"
         offset="0.258427"
         id="stop892" />
      <stop
         style="stop-opacity:1;stop-color:#fddd04"
         offset="0.353932"
         id="stop894" />
      <stop
         style="stop-opacity:1;stop-color:#fbc707"
         offset="0.494382"
         id="stop896" />
      <stop
         style="stop-opacity:1;stop-color:#ffffff"
         offset="0.747191"
         id="stop898" />
      <stop
         style="stop-opacity:1;stop-color:#f89c0e"
         offset="1"
         id="stop900" />
    </linearGradient>
    <clipPath
       clipPathUnits="userSpaceOnUse"
       id="clipPath912">
      <path
         d="M 0,772.877 H 566.929 V 0 H 0 Z"
         id="path910" />
    </clipPath>
  </defs>
  <metadata
     id="metadata5">
    <rdf:RDF>
      <cc:Work
         rdf:about="">
        <dc:format>image/svg+xml</dc:format>
        <dc:type
           rdf:resource="http://purl.org/dc/dcmitype/StillImage" />
        <dc:title></dc:title>
      </cc:Work>
    </rdf:RDF>
  </metadata>
  <g
     id="layer1">
    <g
       id="g840"
       transform="matrix(0.35277777,0,0,-0.35277777,0,272.65382)">
      <g
         id="g1442">
        <path
           d="M 0,0 H 566.929 V 772.877 H 0 Z"
           style="fill:url(#linearGradient870);stroke:none"
           id="path872" />
        <path
           d="M 547.268,19.843 H 19.66 v 733.192 h 527.608 z"
           style="fill:url(#linearGradient902);stroke:none"
           id="path904" />
        <path
           d="m 82.1602,451.0744 h 5.398 c 12.522,0 33.678,-0.643 33.678,17.194 0,19.561 -20.943,17.624 -34.76,17.624 h -4.316 z m 0,66.194 h 4.75 c 11.226,0 22.885,1.937 22.885,15.692 0,14.83 -13.173,15.692 -24.612,15.692 h -3.023 z m -42.318,-98.433 v 162.053 h 60.451 c 28.934,0 48.361,-11.174 48.361,-42.125 0,-14.614 -4.75,-26.435 -17.92,-33.097 v -0.428 c 23.32,-3.011 33.253,-18.699 33.253,-41.265 0,-33.963 -29.149,-45.138 -58.944,-45.138 z"
           style="fill:#231f20;fill-opacity:1;fill-rule:nonzero;stroke:none"
           id="path916" />
        <path
           d="m 219.6798,545.2134 v -27.082 h 47.718 v -35.677 h -47.718 v -27.941 h 50.303 v -35.678 h -92.621 v 162.053 h 92.621 v -35.675 z"
           style="fill:#231f20;fill-opacity:1;fill-rule:nonzero;stroke:none"
           id="path920" />
        <path
           d="m 329.7859,545.2134 v -27.082 h 47.718 v -35.677 h -47.718 v -27.941 h 50.303 v -35.678 h -92.621 v 162.053 h 92.621 v -35.675 z"
           style="fill:#231f20;fill-opacity:1;fill-rule:nonzero;stroke:none"
           id="path924" />
        <path
           d="m 439.8922,508.2429 h 4.104 c 13.814,0 29.36,2.58 29.36,20.205 0,17.624 -15.546,20.204 -29.36,20.204 h -4.104 z m 93.055,-89.407 h -52.679 l -39.943,62.328 h -0.433 v -62.328 h -42.318 v 162.053 h 63.264 c 32.165,0 56.566,-15.257 56.566,-49.861 0,-22.354 -12.525,-41.696 -35.627,-45.778 z"
           style="fill:#231f20;fill-opacity:1;fill-rule:nonzero;stroke:none"
           id="path928" />
        <path
           d="m 83.7636,379.0458 h -0.221 l -8.886,-26.34 h 17.885 z m -15.039,-42.803 -5.707,-14.381 h -22.831 l 31.83,82.763 h 23.494 l 31.169,-82.763 h -22.94 l -5.378,14.381 z"
           style="fill:#231f20;fill-opacity:1;fill-rule:nonzero;stroke:none"
           id="path932" />
        <path
           d="m 150.4968,351.165 h 0.221 l 17.341,53.46 h 17.124 l 16.247,-53.46 h 0.216 l 15.594,53.46 h 22.385 l -26.448,-82.763 h -21.953 l -14.49,47.969 h -0.221 l -16.242,-47.969 h -21.845 l -24.696,82.763 h 22.39 z"
           style="fill:#231f20;fill-opacity:1;fill-rule:nonzero;stroke:none"
           id="path936" />
        <path
           d="m 267.9425,379.0458 h -0.221 l -8.886,-26.34 h 17.895 z m -15.04,-42.803 -5.706,-14.381 h -22.827 l 31.835,82.763 h 23.485 l 31.178,-82.763 h -22.949 l -5.374,14.381 z"
           style="fill:#231f20;fill-opacity:1;fill-rule:nonzero;stroke:none"
           id="path940" />
        <path
           d="m 339.0717,367.5244 h 2.085 c 7.022,0 14.923,1.315 14.923,10.319 0,8.999 -7.901,10.314 -14.923,10.314 h -2.085 z m 47.302,-45.663 h -26.777 l -20.304,31.831 h -0.221 v -31.831 h -21.516 v 82.764 h 32.159 c 16.355,0 28.759,-7.797 28.759,-25.467 0,-11.413 -6.369,-21.296 -18.111,-23.381 z"
           style="fill:#231f20;fill-opacity:1;fill-rule:nonzero;stroke:none"
           id="path944" />
        <path
           d="m 413.7101,340.0804 h 4.828 c 12.842,0 23.814,7.027 23.814,23.161 0,14.818 -9.76,23.16 -23.593,23.16 h -5.049 z m -21.517,64.545 h 30.516 c 23.048,0 42.042,-18.112 42.042,-41.384 0,-23.269 -19.107,-41.38 -42.042,-41.38 h -30.516 z"
           style="fill:#231f20;fill-opacity:1;fill-rule:nonzero;stroke:none"
           id="path948" />
        <path
           d="m 515.7871,383.3293 c -3.95,3.293 -8.999,5.486 -14.264,5.486 -3.95,0 -9.22,-2.302 -9.22,-6.913 0,-4.829 5.815,-6.694 9.548,-7.901 l 5.487,-1.648 c 11.521,-3.406 20.407,-9.22 20.407,-22.611 0,-8.234 -1.972,-16.683 -8.558,-22.282 -6.472,-5.491 -15.142,-7.792 -23.484,-7.792 -10.436,0 -20.638,3.508 -29.087,9.44 l 9.215,17.341 c 5.378,-4.72 11.742,-8.562 19.106,-8.562 5.05,0 10.423,2.522 10.423,8.342 0,6.035 -8.45,8.12 -13.057,9.44 -13.509,3.842 -22.395,7.351 -22.395,23.377 0,16.796 11.958,27.772 28.543,27.772 8.337,0 18.543,-2.635 25.894,-6.805 z"
           style="fill:#231f20;fill-opacity:1;fill-rule:nonzero;stroke:none"
           id="path952" />
        <path
           d="M 526.743,287.823 H 39.184 v 19.843 h 487.559 z"
           style="fill:#231f20;fill-opacity:1;fill-rule:nonzero;stroke:none"
           id="path954" />
        <path
           d="M 526.743,704.995 H 39.184 v 19.843 h 487.559 z"
           style="fill:#231f20;fill-opacity:1;fill-rule:nonzero;stroke:none"
           id="path956" />
        <path
           d="m 65.1046,690.7058 16.437,-61.577 20.231,61.577 h 19.725 l 20.231,-61.577 16.438,61.577 h 25.92 l -28.449,-95.338 h -25.289 l -18.713,55.256 -18.714,-55.256 h -25.288 l -28.45,95.338 z"
           style="fill:#231f20;fill-opacity:1;fill-rule:nonzero;stroke:none"
           id="path960" />
        <path
           d="m 321.1481,648.0945 h 4.678 c 4.888,0 8.64,1.012 11.254,3.035 2.612,2.022 3.92,4.931 3.92,8.724 0,3.793 -1.308,6.701 -3.92,8.725 -2.614,2.023 -6.366,3.034 -11.254,3.034 h -4.678 z m 54.497,-52.726 h -30.852 l -23.645,36.668 v -36.668 h -24.783 v 95.337 h 38.565 c 5.311,0 9.946,-0.78 13.909,-2.339 3.961,-1.561 7.227,-3.689 9.799,-6.386 2.57,-2.698 4.509,-5.816 5.817,-9.356 1.305,-3.541 1.959,-7.334 1.959,-11.38 0,-7.251 -1.75,-13.13 -5.247,-17.639 -3.499,-4.51 -8.661,-7.567 -15.489,-9.167 z"
           style="fill:#231f20;fill-opacity:1;fill-rule:nonzero;stroke:none"
           id="path964" />
        <path
           d="m 405.7379,690.7058 v -74.348 h 29.714 v -20.99 h -54.497 v 95.338 z"
           style="fill:#231f20;fill-opacity:1;fill-rule:nonzero;stroke:none"
           id="path968" />
        <path
           d="m 467.9471,616.3575 h 5.69 c 4.299,0 8.134,0.674 11.506,2.023 3.371,1.347 6.216,3.203 8.535,5.564 2.317,2.358 4.088,5.162 5.311,8.408 1.221,3.244 1.833,6.806 1.833,10.684 0,3.793 -0.632,7.334 -1.896,10.621 -1.265,3.288 -3.057,6.111 -5.374,8.472 -2.32,2.359 -5.165,4.214 -8.535,5.564 -3.373,1.347 -7.166,2.023 -11.38,2.023 h -5.69 z m -24.783,74.348 h 36.669 c 6.49,0 12.581,-1.308 18.27,-3.919 5.691,-2.615 10.663,-6.092 14.921,-10.432 4.255,-4.342 7.606,-9.401 10.052,-15.173 2.444,-5.775 3.667,-11.823 3.667,-18.145 0,-6.239 -1.202,-12.245 -3.604,-18.018 -2.402,-5.774 -5.733,-10.854 -9.989,-15.236 -4.257,-4.384 -9.23,-7.883 -14.92,-10.495 -5.69,-2.613 -11.822,-3.919 -18.397,-3.919 h -36.669 z"
           style="fill:#231f20;fill-opacity:1;fill-rule:nonzero;stroke:none"
           id="path972" />
        <path
           d="m 311.5212,271.6554 -8.485,-18.979 -4.019,1.563 6.996,19.426 z"
           style="fill:#231f20;fill-opacity:1;fill-rule:nonzero;stroke:none"
           id="path976" />
        <path
           d="m 61.921,230.6448 18.161,44.955 18.161,-44.955 14.737,42.053 h 6.773 l -21.51,-59.023 -18.161,45.179 -18.161,-45.179 -21.51,59.023 h 6.773 z"
           style="fill:#231f20;fill-opacity:1;fill-rule:nonzero;stroke:none"
           id="path980" />
        <path
           d="m 125.2493,244.6375 c 0,-12.653 10.271,-23.222 22.999,-23.222 12.727,0 22.998,10.569 22.998,23.222 0,12.727 -10.122,23.222 -22.998,23.222 -12.877,0 -22.999,-10.495 -22.999,-23.222 m 52.249,-0.074 c 0,-16.152 -13.248,-28.954 -29.25,-28.954 -16.003,0 -29.251,12.802 -29.251,28.954 0,16.076 13.248,29.101 29.251,29.101 16.002,0 29.25,-13.025 29.25,-29.101"
           style="fill:#231f20;fill-opacity:1;fill-rule:nonzero;stroke:none"
           id="path984" />
        <path
           d="m 190.7388,246.7216 h 1.935 c 7.071,0 14.216,1.34 14.216,10.048 0,9.229 -6.773,10.122 -14.29,10.122 h -1.861 z m 0,-30.144 h -6.252 v 56.12 h 8.113 c 10.643,0 20.542,-2.828 20.542,-15.481 0,-8.634 -5.433,-14.738 -14.067,-15.482 l 17.863,-25.157 h -7.666 l -16.97,24.636 h -1.563 z"
           style="fill:#231f20;fill-opacity:1;fill-rule:nonzero;stroke:none"
           id="path988" />
        <path
           d="m 229.5852,222.3831 h 15.481 v -5.806 h -21.733 v 56.12 h 6.252 z"
           style="fill:#231f20;fill-opacity:1;fill-rule:nonzero;stroke:none"
           id="path992" />
        <path
           d="m 262.0327,222.3831 c 6.848,0 12.579,0.968 17.714,5.805 4.615,4.317 6.997,10.197 6.997,16.449 0,6.401 -2.457,12.579 -7.295,16.821 -5.135,4.541 -10.792,5.434 -17.416,5.434 h -4.54 v -44.509 z m -10.792,50.314 h 10.569 c 8.41,0 15.258,-1.116 21.882,-6.773 6.401,-5.508 9.304,-13.025 9.304,-21.361 0,-8.187 -2.978,-15.407 -9.155,-20.915 -6.699,-5.954 -13.397,-7.071 -22.18,-7.071 h -10.42 z"
           style="fill:#231f20;fill-opacity:1;fill-rule:nonzero;stroke:none"
           id="path996" />
        <path
           d="m 342.704,261.7563 c -2.233,3.87 -4.912,6.103 -9.676,6.103 -4.987,0 -9.304,-3.572 -9.304,-8.708 0,-4.838 4.987,-7.071 8.783,-8.783 l 3.722,-1.637 c 7.294,-3.201 13.471,-6.848 13.471,-15.779 0,-9.825 -7.889,-17.342 -17.64,-17.342 -9.005,0 -15.704,5.805 -17.49,14.513 l 6.103,1.712 c 0.819,-5.731 5.21,-10.42 11.239,-10.42 6.029,0 11.536,4.615 11.536,10.941 0,6.55 -5.135,8.783 -10.345,11.165 l -3.424,1.488 c -6.55,2.978 -12.207,6.327 -12.207,14.365 0,8.709 7.369,14.291 15.705,14.291 6.252,0 11.537,-3.201 14.514,-8.709 z"
           style="fill:#231f20;fill-opacity:1;fill-rule:nonzero;stroke:none"
           id="path1000" />
        <path
           d="m 388.0219,222.3831 h 6.252 c 6.997,0 14.365,1.712 14.365,10.271 0,8.709 -8.336,9.974 -15.184,9.974 h -5.433 z m 0,25.604 h 2.382 c 7.07,0 13.099,0.819 13.099,9.527 0,8.485 -5.359,9.378 -13.025,9.378 h -2.456 z m -6.252,24.71 h 9.229 c 10.197,0 18.756,-3.721 18.756,-15.183 0,-4.54 -1.711,-8.411 -5.507,-10.941 6.698,-1.638 10.643,-7.667 10.643,-14.365 0,-11.165 -9.006,-15.631 -20.096,-15.631 h -13.025 z"
           style="fill:#231f20;fill-opacity:1;fill-rule:nonzero;stroke:none"
           id="path1004" />
        <path
           d="m 421.0628,272.6974 h 29.102 v -5.806 h -22.85 v -16.672 h 22.18 v -5.805 h -22.18 v -22.031 h 22.85 v -5.806 h -29.102 z"
           style="fill:#231f20;fill-opacity:1;fill-rule:nonzero;stroke:none"
           id="path1008" />
        <path
           d="m 483.2808,261.7563 c -2.233,3.87 -4.912,6.103 -9.676,6.103 -4.987,0 -9.304,-3.572 -9.304,-8.708 0,-4.838 4.987,-7.071 8.783,-8.783 l 3.722,-1.637 c 7.294,-3.201 13.471,-6.848 13.471,-15.779 0,-9.825 -7.889,-17.342 -17.64,-17.342 -9.005,0 -15.704,5.805 -17.49,14.513 l 6.103,1.712 c 0.819,-5.731 5.21,-10.42 11.239,-10.42 6.029,0 11.536,4.615 11.536,10.941 0,6.55 -5.135,8.783 -10.345,11.165 l -3.424,1.488 c -6.55,2.978 -12.207,6.327 -12.207,14.365 0,8.709 7.369,14.291 15.705,14.291 6.252,0 11.537,-3.201 14.514,-8.709 z"
           style="fill:#231f20;fill-opacity:1;fill-rule:nonzero;stroke:none"
           id="path1012" />
        <path
           d="m 512.8232,216.5776 h -6.252 v 50.314 h -13.546 v 5.806 h 33.493 v -5.806 h -13.695 z"
           style="fill:#231f20;fill-opacity:1;fill-rule:nonzero;stroke:none"
           id="path1016" />
        <path
           d="m 266.2331,619.3868 h -12.328 v 36.983 h -6.793 v 10.441 h 19.121 z m -25.912,0 h -38.115 l 19.372,21.07 c 2.767,3.02 5.409,7.296 5.409,11.636 0,3.02 -2.139,6.164 -5.409,6.164 -3.334,0 -5.158,-2.579 -5.158,-5.786 0,-0.629 0.063,-1.321 0.189,-2.013 h -13.586 c 0.377,10.881 7.296,18.24 18.492,18.24 9.938,0 18.303,-6.542 18.303,-16.856 0,-6.793 -2.831,-10.756 -7.673,-15.158 l -7.36,-6.857 h 15.536 z m -4.869,74.45 c -27.421,0 -52.695,-20.219 -52.695,-49.031 0,-30.834 22.115,-52.569 52.695,-52.569 30.582,0 52.697,21.735 52.697,52.569 0,28.812 -25.274,49.031 -52.697,49.031"
           style="fill:#231f20;fill-opacity:1;fill-rule:nonzero;stroke:none"
           id="path1020" />
        <path
           d="m 116.1447,183.7966 c -1.951,1.584 -3.901,2.757 -5.851,3.52 -1.951,0.761 -3.838,1.142 -5.667,1.142 -2.316,0 -4.205,-0.548 -5.668,-1.645 -1.461,-1.097 -2.193,-2.53 -2.193,-4.296 0,-1.22 0.365,-2.226 1.097,-3.017 0.731,-0.792 1.691,-1.478 2.88,-2.057 1.188,-0.58 2.527,-1.082 4.021,-1.507 1.493,-0.428 2.971,-0.885 4.434,-1.371 5.849,-1.952 10.131,-4.557 12.843,-7.816 2.71,-3.261 4.067,-7.512 4.067,-12.752 0,-3.534 -0.594,-6.733 -1.782,-9.597 -1.189,-2.866 -2.925,-5.318 -5.21,-7.359 -2.285,-2.042 -5.089,-3.626 -8.41,-4.753 -3.323,-1.127 -7.084,-1.691 -11.29,-1.691 -8.714,0 -16.788,2.59 -24.222,7.77 l 7.679,14.443 c 2.68,-2.377 5.331,-4.146 7.952,-5.302 2.619,-1.158 5.21,-1.737 7.769,-1.737 2.925,0 5.104,0.67 6.536,2.01 1.431,1.34 2.148,2.865 2.148,4.572 0,1.035 -0.183,1.933 -0.548,2.696 -0.366,0.761 -0.976,1.462 -1.828,2.102 -0.855,0.64 -1.966,1.234 -3.337,1.783 -1.371,0.548 -3.032,1.157 -4.982,1.828 -2.316,0.731 -4.585,1.538 -6.809,2.422 -2.226,0.883 -4.205,2.056 -5.942,3.519 -1.737,1.463 -3.139,3.305 -4.205,5.53 -1.067,2.224 -1.599,5.042 -1.599,8.456 0,3.412 0.562,6.503 1.69,9.278 1.127,2.771 2.711,5.148 4.754,7.13 2.041,1.979 4.539,3.518 7.495,4.615 2.955,1.098 6.262,1.646 9.918,1.646 3.412,0 6.977,-0.473 10.695,-1.417 3.716,-0.946 7.281,-2.331 10.694,-4.159 z"
           style="fill:#231f20;fill-opacity:1;fill-rule:nonzero;stroke:none"
           id="path1024" />
        <path
           d="m 163.9494,186.2654 v -53.748 h -17.916 v 53.748 h -14.717 v 15.174 h 47.349 v -15.174 z"
           style="fill:#231f20;fill-opacity:1;fill-rule:nonzero;stroke:none"
           id="path1028" />
        <path
           d="m 201.6096,166.9783 c 0,-2.742 0.518,-5.271 1.555,-7.587 1.035,-2.316 2.436,-4.328 4.204,-6.033 1.766,-1.707 3.823,-3.032 6.17,-3.977 2.345,-0.945 4.829,-1.416 7.45,-1.416 2.619,0 5.103,0.471 7.449,1.416 2.346,0.945 4.418,2.27 6.216,3.977 1.797,1.705 3.214,3.717 4.251,6.033 1.035,2.316 1.554,4.845 1.554,7.587 0,2.742 -0.519,5.271 -1.554,7.587 -1.037,2.314 -2.454,4.326 -4.251,6.032 -1.798,1.706 -3.87,3.031 -6.216,3.977 -2.346,0.944 -4.83,1.417 -7.449,1.417 -2.621,0 -5.105,-0.473 -7.45,-1.417 -2.347,-0.946 -4.404,-2.271 -6.17,-3.977 -1.768,-1.706 -3.169,-3.718 -4.204,-6.032 -1.037,-2.316 -1.555,-4.845 -1.555,-7.587 m -18.738,0 c 0,5.118 0.944,9.886 2.834,14.305 1.887,4.418 4.508,8.272 7.86,11.563 3.352,3.291 7.358,5.864 12.021,7.724 4.662,1.858 9.794,2.788 15.402,2.788 5.544,0 10.663,-0.93 15.356,-2.788 4.692,-1.86 8.73,-4.433 12.112,-7.724 3.382,-3.291 6.017,-7.145 7.907,-11.563 1.888,-4.419 2.833,-9.187 2.833,-14.305 0,-5.119 -0.945,-9.888 -2.833,-14.306 -1.89,-4.419 -4.525,-8.272 -7.907,-11.562 -3.382,-3.291 -7.42,-5.866 -12.112,-7.725 -4.693,-1.858 -9.812,-2.788 -15.356,-2.788 -5.608,0 -10.74,0.93 -15.402,2.788 -4.663,1.859 -8.669,4.434 -12.021,7.725 -3.352,3.29 -5.973,7.143 -7.86,11.562 -1.89,4.418 -2.834,9.187 -2.834,14.306"
           style="fill:#231f20;fill-opacity:1;fill-rule:nonzero;stroke:none"
           id="path1032" />
        <path
           d="m 288.4455,201.4392 v -37.478 c 0,-2.01 0.076,-4.067 0.229,-6.169 0.151,-2.103 0.608,-4.008 1.371,-5.713 0.761,-1.707 1.965,-3.094 3.611,-4.16 1.645,-1.067 3.96,-1.599 6.946,-1.599 2.986,0 5.286,0.532 6.902,1.599 1.614,1.066 2.818,2.453 3.611,4.16 0.791,1.705 1.264,3.61 1.416,5.713 0.151,2.102 0.228,4.159 0.228,6.169 v 37.478 h 17.826 v -39.945 c 0,-10.727 -2.454,-18.556 -7.359,-23.493 -4.906,-4.935 -12.447,-7.404 -22.624,-7.404 -10.178,0 -17.732,2.469 -22.669,7.404 -4.935,4.937 -7.403,12.766 -7.403,23.493 v 39.945 z"
           style="fill:#231f20;fill-opacity:1;fill-rule:nonzero;stroke:none"
           id="path1036" />
        <path
           d="m 371.1692,186.2654 v -53.748 h -17.916 v 53.748 h -14.717 v 15.174 h 47.349 v -15.174 z"
           style="fill:#231f20;fill-opacity:1;fill-rule:nonzero;stroke:none"
           id="path1040" />
        <path
           d="m 454.259,176.3015 c 4.265,2.56 6.398,5.423 6.398,8.593 0,1.705 -0.564,3.183 -1.691,4.432 -1.128,1.249 -2.575,1.874 -4.342,1.874 -1.645,0 -3.016,-0.547 -4.113,-1.645 -1.097,-1.097 -1.646,-2.468 -1.646,-4.113 0,-2.194 1.797,-5.242 5.394,-9.141 m -7.404,-14.991 c -4.328,-2.682 -6.491,-5.363 -6.491,-8.043 0,-0.976 0.213,-1.874 0.64,-2.697 0.426,-0.823 1.006,-1.524 1.737,-2.103 0.732,-0.579 1.569,-1.036 2.514,-1.371 0.944,-0.335 1.965,-0.502 3.063,-0.502 3.045,0 6.183,1.005 9.414,3.016 z m 23.949,-2.468 c 3.656,3.474 6.641,6.765 8.957,9.872 l 10.146,-9.78 c -1.037,-1.403 -2.209,-2.82 -3.518,-4.251 -1.312,-1.433 -2.819,-2.941 -4.526,-4.525 l -1.371,-1.279 15.357,-16.362 h -22.303 l -6.033,6.307 c -8.227,-5.485 -16.119,-8.227 -23.675,-8.227 -3.23,0 -6.185,0.489 -8.866,1.463 -2.683,0.973 -4.998,2.345 -6.947,4.113 -1.952,1.767 -3.474,3.854 -4.571,6.262 -1.096,2.406 -1.645,5.041 -1.645,7.906 0,2.56 0.349,4.829 1.051,6.811 0.7,1.979 1.904,3.884 3.611,5.712 1.279,1.401 2.696,2.605 4.25,3.611 1.554,1.006 3.458,2.025 5.713,3.062 l 1.92,0.914 -1.189,1.371 c -3.535,4.448 -5.302,8.684 -5.302,12.706 0,2.68 0.549,5.178 1.646,7.496 1.097,2.314 2.605,4.31 4.524,5.987 1.92,1.675 4.19,2.984 6.811,3.93 2.619,0.944 5.453,1.417 8.501,1.417 3.107,0 5.971,-0.473 8.592,-1.417 2.619,-0.946 4.89,-2.271 6.809,-3.976 1.92,-1.707 3.412,-3.702 4.48,-5.987 1.065,-2.285 1.599,-4.77 1.599,-7.45 0,-1.829 -0.213,-3.49 -0.639,-4.982 -0.428,-1.494 -1.143,-2.895 -2.149,-4.205 -1.005,-1.311 -2.316,-2.56 -3.93,-3.747 -1.616,-1.189 -3.611,-2.393 -5.988,-3.611 z"
           style="fill:#231f20;fill-opacity:1;fill-rule:nonzero;stroke:none"
           id="path1044" />
        <path
           d="m 120.0285,86.1218 h 5.942 c 6.581,0 9.872,2.864 9.872,8.593 0,5.727 -3.291,8.593 -9.872,8.593 h -5.942 z m 0,-37.294 h -17.915 v 68.922 h 28.519 c 7.738,0 13.666,-2.012 17.779,-6.033 4.113,-4.023 6.17,-9.69 6.17,-17.002 0,-7.313 -2.057,-12.98 -6.17,-17.002 -4.113,-4.022 -10.041,-6.033 -17.779,-6.033 h -10.604 z"
           style="fill:#231f20;fill-opacity:1;fill-rule:nonzero;stroke:none"
           id="path1048" />
        <path
           d="m 179.717,83.2888 c 0,-2.742 0.518,-5.271 1.555,-7.587 1.035,-2.316 2.436,-4.328 4.204,-6.033 1.766,-1.707 3.823,-3.032 6.17,-3.977 2.345,-0.945 4.829,-1.416 7.45,-1.416 2.619,0 5.103,0.471 7.449,1.416 2.346,0.945 4.418,2.27 6.216,3.977 1.797,1.705 3.214,3.717 4.251,6.033 1.035,2.316 1.554,4.845 1.554,7.587 0,2.742 -0.519,5.271 -1.554,7.587 -1.037,2.314 -2.454,4.326 -4.251,6.032 -1.798,1.706 -3.87,3.031 -6.216,3.977 -2.346,0.944 -4.83,1.417 -7.449,1.417 -2.621,0 -5.105,-0.473 -7.45,-1.417 -2.347,-0.946 -4.404,-2.271 -6.17,-3.977 -1.768,-1.706 -3.169,-3.718 -4.204,-6.032 -1.037,-2.316 -1.555,-4.845 -1.555,-7.587 m -18.738,0 c 0,5.118 0.944,9.886 2.834,14.305 1.887,4.418 4.508,8.272 7.86,11.563 3.352,3.291 7.358,5.864 12.021,7.724 4.662,1.858 9.794,2.788 15.402,2.788 5.544,0 10.663,-0.93 15.356,-2.788 4.692,-1.86 8.73,-4.433 12.112,-7.724 3.382,-3.291 6.017,-7.145 7.907,-11.563 1.888,-4.419 2.833,-9.187 2.833,-14.305 0,-5.119 -0.945,-9.888 -2.833,-14.306 -1.89,-4.419 -4.525,-8.272 -7.907,-11.562 -3.382,-3.291 -7.42,-5.866 -12.112,-7.725 -4.693,-1.858 -9.812,-2.788 -15.356,-2.788 -5.608,0 -10.74,0.93 -15.402,2.788 -4.663,1.859 -8.669,4.434 -12.021,7.725 -3.352,3.29 -5.973,7.143 -7.86,11.562 -1.89,4.418 -2.834,9.187 -2.834,14.306"
           style="fill:#231f20;fill-opacity:1;fill-rule:nonzero;stroke:none"
           id="path1052" />
        <path
           d="m 266.5539,86.9451 h 3.383 c 3.533,0 6.245,0.731 8.135,2.193 1.888,1.463 2.834,3.566 2.834,6.308 0,2.742 -0.946,4.845 -2.834,6.307 -1.89,1.463 -4.602,2.194 -8.135,2.194 h -3.383 z m 39.397,-38.117 h -22.303 l -17.094,26.508 v -26.508 h -17.915 v 68.922 h 27.879 c 3.839,0 7.189,-0.565 10.055,-1.692 2.864,-1.128 5.224,-2.667 7.084,-4.616 1.858,-1.951 3.259,-4.205 4.205,-6.764 0.944,-2.559 1.417,-5.301 1.417,-8.227 0,-5.241 -1.266,-9.492 -3.794,-12.751 -2.53,-3.261 -6.261,-5.47 -11.198,-6.627 z"
           style="fill:#231f20;fill-opacity:1;fill-rule:nonzero;stroke:none"
           id="path1056" />
        <path
           d="m 339.6799,102.5759 v -53.748 h -17.916 v 53.748 h -14.717 v 15.174 h 47.349 v -15.174 z"
           style="fill:#231f20;fill-opacity:1;fill-rule:nonzero;stroke:none"
           id="path1060" />
        <path
           d="m 401.5627,102.5759 h -21.299 v -11.518 h 20.111 v -15.173 h -20.111 v -11.883 h 21.299 v -15.174 h -39.214 v 68.922 h 39.214 z"
           style="fill:#231f20;fill-opacity:1;fill-rule:nonzero;stroke:none"
           id="path1064" />
        <path
           d="m 432.3654,86.9451 h 3.383 c 3.533,0 6.245,0.731 8.135,2.193 1.888,1.463 2.834,3.566 2.834,6.308 0,2.742 -0.946,4.845 -2.834,6.307 -1.89,1.463 -4.602,2.194 -8.135,2.194 h -3.383 z m 39.397,-38.117 h -22.303 l -17.094,26.508 v -26.508 h -17.915 v 68.922 h 27.879 c 3.839,0 7.189,-0.565 10.055,-1.692 2.864,-1.128 5.224,-2.667 7.084,-4.616 1.858,-1.951 3.259,-4.205 4.205,-6.764 0.944,-2.559 1.417,-5.301 1.417,-8.227 0,-5.241 -1.266,-9.492 -3.794,-12.751 -2.53,-3.261 -6.261,-5.47 -11.198,-6.627 z"
           style="fill:#231f20;fill-opacity:1;fill-rule:nonzero;stroke:none"
           id="path1068" />
      </g>
    </g>
  </g>
</svg>
