<?xml version="1.0" encoding="UTF-8" standalone="no"?>
<svg
   xmlns:dc="http://purl.org/dc/elements/1.1/"
   xmlns:cc="http://creativecommons.org/ns#"
   xmlns:rdf="http://www.w3.org/1999/02/22-rdf-syntax-ns#"
   xmlns:svg="http://www.w3.org/2000/svg"
   xmlns="http://www.w3.org/2000/svg"
   xmlns:sodipodi="http://sodipodi.sourceforge.net/DTD/sodipodi-0.dtd"
   xmlns:inkscape="http://www.inkscape.org/namespaces/inkscape"
   width="42.995525"
   height="42.991371"
   viewBox="0 0 11.375899 11.374801"
   version="1.1"
   id="svg8"
   inkscape:version="1.0.2 (e86c870879, 2021-01-15)"
   sodipodi:docname="instagram-icon-light.svg">
  <defs
     id="defs2" />
  <sodipodi:namedview
     id="base"
     pagecolor="#4d4d4d"
     bordercolor="#666666"
     borderopacity="1.0"
     inkscape:pageopacity="0"
     inkscape:pageshadow="2"
     inkscape:zoom="2.7609863"
     inkscape:cx="-67.904684"
     inkscape:cy="90.569616"
     inkscape:document-units="px"
     inkscape:current-layer="layer1"
     inkscape:document-rotation="0"
     showgrid="false"
     units="px"
     showborder="true"
     inkscape:showpageshadow="false"
     inkscape:snap-nodes="false"
     inkscape:snap-page="true"
     inkscape:object-nodes="true"
     inkscape:snap-bbox="true"
     inkscape:bbox-paths="true"
     inkscape:bbox-nodes="true"
     inkscape:snap-bbox-edge-midpoints="true"
     inkscape:snap-bbox-midpoints="true"
     inkscape:window-width="1858"
     inkscape:window-height="1177"
     inkscape:window-x="54"
     inkscape:window-y="-8"
     inkscape:window-maximized="1" />
  <metadata
     id="metadata5">
    <rdf:RDF>
      <cc:Work
         rdf:about="">
        <dc:format>image/svg+xml</dc:format>
        <dc:type
           rdf:resource="http://purl.org/dc/dcmitype/StillImage" />
        <dc:title></dc:title>
        <dc:creator>
          <cc:Agent>
            <dc:title>plehho</dc:title>
          </cc:Agent>
        </dc:creator>
      </cc:Work>
    </rdf:RDF>
  </metadata>
  <g
     inkscape:label="Layer 1"
     inkscape:groupmode="layer"
     id="layer1">
    <path
       fill="currentColor"
       d="m 5.68925,2.7714 c -1.6141,0 -2.9161,1.3019 -2.9161,2.9161 0,1.614 1.302,2.9161 2.9161,2.9161 1.6142,0 2.9161,-1.3021 2.9161,-2.9161 0,-1.6142 -1.3019,-2.9161 -2.9161,-2.9161 z m 0,4.8119 c -1.0431,0 -1.8958,-0.8502 -1.8958,-1.8958 0,-1.0457 0.8502,-1.8959 1.8958,-1.8959 1.0456,0 1.8959,0.8502 1.8959,1.8959 0,1.0456 -0.8528,1.8958 -1.8959,1.8958 z m 3.7156,-4.9312 c 0,0.3781 -0.3046,0.6801 -0.6802,0.6801 -0.3782,0 -0.6802,-0.3045 -0.6802,-0.6801 0,-0.3756 0.3046,-0.6802 0.6802,-0.6802 0.3756,0 0.6802,0.3046 0.6802,0.6802 z m 1.9313,0.6903 c -0.043,-0.9112 -0.2512,-1.7182 -0.9187,-2.3832 -0.6649,-0.6649 -1.472,-0.8731 -2.3831,-0.9187 -0.9391,-0.054 -3.7536,-0.054 -4.6927,0 -0.9086,0.043 -1.7156,0.2513 -2.3831,0.9161 -0.6675,0.665 -0.8731,1.472 -0.9188,2.3832 -0.053,0.939 -0.053,3.7536 0,4.6927 0.043,0.9111 0.2513,1.7181 0.9188,2.3831 0.6675,0.665 1.472,0.8731 2.3831,0.9187 0.9391,0.054 3.7536,0.054 4.6927,0 0.9111,-0.043 1.7182,-0.2512 2.3831,-0.9187 0.665,-0.665 0.8731,-1.472 0.9187,-2.3831 0.053,-0.9391 0.053,-3.7511 0,-4.6901 z m -1.2131,5.6977 c -0.1979,0.4974 -0.5812,0.8806 -1.0811,1.0811 -0.7487,0.297 -2.5253,0.2285 -3.3527,0.2285 -0.8274,0 -2.6064,0.066 -3.3526,-0.2285 C 1.83925,9.9233 1.45595,9.54 1.25545,9.0401 0.95855,8.2913 1.02705,6.5148 1.02705,5.6875 c 0,-0.8274 -0.066,-2.6066 0.2284,-3.3527 0.198,-0.4974 0.5812,-0.8807 1.0812,-1.0811 0.7487,-0.2971 2.5252,-0.2285 3.3526,-0.2285 0.8274,0 2.6065,-0.066 3.3527,0.2285 0.4974,0.1978 0.8806,0.5811 1.0811,1.0811 0.297,0.7487 0.2284,2.5253 0.2284,3.3527 0,0.8273 0.069,2.6064 -0.2284,3.3526 z"
       id="path3933"
       style="display:inline;fill:#ececec;fill-opacity:1;stroke-width:0.264583" />
  </g>
</svg>
