<?xml version="1.0" encoding="UTF-8" standalone="no"?>
<svg
   xmlns:dc="http://purl.org/dc/elements/1.1/"
   xmlns:cc="http://creativecommons.org/ns#"
   xmlns:rdf="http://www.w3.org/1999/02/22-rdf-syntax-ns#"
   xmlns:svg="http://www.w3.org/2000/svg"
   xmlns="http://www.w3.org/2000/svg"
   version="1.1"
   id="svg930"
   xml:space="preserve"
   width="500"
   height="203.04271"
   viewBox="0 0 500 203.04271"><metadata
     id="metadata936"><rdf:RDF><cc:Work
         rdf:about=""><dc:format>image/svg+xml</dc:format><dc:type
           rdf:resource="http://purl.org/dc/dcmitype/StillImage" /><dc:title></dc:title></cc:Work></rdf:RDF></metadata><defs
     id="defs934"><clipPath
       clipPathUnits="userSpaceOnUse"
       id="clipPath948"><path
         d="M 0,900 H 900 V 0 H 0 Z"
         id="path946" /></clipPath></defs><g
     id="g938"
     transform="matrix(1.3333333,0,0,-1.3333333,-3.7105066e-7,1200)"
     style="fill:#f9f9f9"><g
       id="g942"
       transform="matrix(0.51121512,0,0,0.51121512,-42.547105,594.67664)"
       style="stroke-width:1.95612;fill:#f9f9f9"><g
         id="g944"
         clip-path="url(#clipPath948)"
         style="stroke-width:1.95612;fill:#f9f9f9"><g
           id="g950"
           transform="translate(83.2274,429.0811)"
           style="stroke-width:1.95612;fill:#f9f9f9"><path
             d="m 0,0 32.286,19.522 c 7.689,-28.057 21.006,-42.086 39.953,-42.086 17.952,0 26.982,9.017 27.077,27.046 0,6.072 -2.975,11.493 -8.905,16.27 -5.941,4.774 -13.148,9.017 -21.645,12.726 -8.491,3.715 -17.036,7.951 -25.621,12.728 -8.596,4.772 -15.857,11.498 -21.793,20.174 -5.934,8.674 -8.9,19.136 -8.9,31.383 0,15.819 5.379,29.161 16.141,40.014 10.759,10.851 24.247,16.283 40.466,16.283 28.077,0 48.057,-12.547 59.927,-37.64 L 97.87,96.609 c -7.533,14.653 -17.14,21.929 -28.811,21.834 -5.7,0 -10.424,-1.781 -14.191,-5.353 -3.761,-3.568 -5.648,-8.094 -5.648,-13.588 0,-6.56 3.066,-12.348 9.195,-17.361 6.128,-5.013 13.489,-9.492 22.074,-13.446 8.592,-3.955 17.234,-8.294 25.92,-13.018 8.685,-4.719 16.093,-11.23 22.22,-19.522 6.13,-8.294 9.188,-18.173 9.188,-29.65 0,-20.203 -6.024,-36.036 -18.093,-47.496 -12.059,-11.455 -28.182,-17.183 -48.349,-17.183 -18.147,0 -33.734,5.586 -46.765,16.753 C 11.583,-30.248 3.379,-16.445 0,0"
             style="fill:#f9f9f9;fill-opacity:1;fill-rule:nonzero;stroke:none;stroke-width:1.95612"
             id="path952" /></g><g
           id="g954"
           transform="translate(385.9282,370.9077)"
           style="stroke-width:1.95612;fill:#f9f9f9"><path
             d="m 0,0 v 31.42 c 8.684,0 15.127,1.592 19.328,4.767 4.193,3.196 6.686,8.59 7.451,16.219 l 9.701,96.998 H 145.343 V 0 H 108.58 V 117.98 H 69.419 L 60.376,39.215 C 59.456,30.499 57.422,23.427 54.311,18.009 51.2,12.583 46.737,8.57 40.932,5.952 35.128,3.343 29.261,1.687 23.352,1.016 17.433,0.337 9.648,0 0,0"
             style="fill:#f9f9f9;fill-opacity:1;fill-rule:nonzero;stroke:none;stroke-width:1.95612"
             id="path956" /></g><g
           id="g958"
           transform="translate(525.1211,542.8936)"
           style="stroke-width:1.95612;fill:#f9f9f9"><path
             d="M 0,0 V 35.618 H 153.599 V 0 H 96.126 V -171.985 H 57.624 V 0 Z"
             style="fill:#f9f9f9;fill-opacity:1;fill-rule:nonzero;stroke:none;stroke-width:1.95612"
             id="path960" /></g><g
           id="g962"
           transform="translate(713.6918,480.4741)"
           style="stroke-width:1.95612;fill:#f9f9f9"><path
             d="m 0,0 c -6.757,-8.801 -10.131,-19.623 -10.131,-32.478 0,-12.865 3.374,-23.689 10.131,-32.488 6.757,-8.789 15.851,-13.19 27.292,-13.19 11.43,0 20.502,4.401 27.207,13.19 6.717,8.799 10.068,19.623 10.068,32.488 C 64.567,-19.623 61.216,-8.801 54.499,0 47.794,8.789 38.722,13.19 27.292,13.19 15.851,13.19 6.757,8.789 0,0 M -12.74,96.661 H 67.02 V 63.806 H -12.74 Z M -28.163,-87.774 c -13.649,14.531 -20.48,32.991 -20.48,55.37 0,22.377 6.831,40.794 20.48,55.284 13.664,14.49 32.145,21.73 55.455,21.73 23.301,0 41.76,-7.24 55.37,-21.73 13.609,-14.49 20.42,-32.907 20.42,-55.284 0,-22.379 -6.811,-40.839 -20.42,-55.37 -13.61,-14.531 -32.069,-21.79 -55.37,-21.79 -23.31,0 -41.791,7.259 -55.455,21.79"
             style="fill:#f9f9f9;fill-opacity:1;fill-rule:nonzero;stroke:none;stroke-width:1.95612"
             id="path964" /></g><g
           id="g966"
           transform="translate(301.3317,576.5823)"
           style="stroke-width:1.95612;fill:#f9f9f9"><path
             d="m 0,0 c -5.878,0 -8.817,-3.158 -8.817,-9.468 0,-6.312 2.939,-9.466 8.817,-9.466 5.879,0 8.818,3.154 8.818,9.466 C 8.818,-3.158 5.879,0 0,0 m -24.572,-159.856 c 0,-3.955 1.325,-7.349 3.975,-10.189 2.652,-2.845 6.479,-4.266 11.494,-4.266 9.054,0 17.077,2.841 24.065,8.527 6.983,5.685 10.478,13.103 10.478,22.26 v 2.89 H 0.868 c -16.958,0 -25.44,-6.411 -25.44,-19.222 m 2.676,128.782 c -5.735,5.683 -8.6,12.885 -8.6,21.606 0,8.722 2.865,15.92 8.6,21.61 5.732,5.683 13.03,8.526 21.896,8.526 8.866,0 16.165,-2.843 21.896,-8.526 5.735,-5.69 8.6,-12.888 8.6,-21.61 0,-8.721 -2.865,-15.923 -8.6,-21.606 -5.731,-5.689 -13.03,-8.531 -21.896,-8.531 -8.866,0 -16.164,2.842 -21.896,8.531 m -41.121,-129.36 c 0,14.835 5.877,26.69 17.634,35.555 11.755,8.863 27.073,13.296 45.96,13.296 H 25.44 v 6.537 c 0,14.72 -8.674,22.031 -26.017,21.937 -13.2,0 -21.776,-5.716 -25.727,-17.144 l -31.076,7.118 c 2.407,12.404 8.718,22.402 18.936,29.997 10.213,7.592 22.837,11.391 37.867,11.391 41.82,0 62.728,-20.86 62.728,-62.583 v -89.031 H 31.942 l -3.759,18.931 c -11.658,-14.162 -26.979,-21.245 -45.961,-21.245 -13.201,0 -24.043,3.927 -32.521,11.781 -8.476,7.851 -12.718,19.006 -12.718,33.46"
             style="fill:#f9f9f9;fill-opacity:1;fill-rule:nonzero;stroke:none;stroke-width:1.95612"
             id="path968" /></g><g
           id="g970"
           transform="translate(200.6523,305.0293)"
           style="stroke-width:1.95612;fill:#f9f9f9"><path
             d="M 0,0 C 4.152,0 6.229,1.829 6.229,5.463 6.229,9.097 4.152,10.926 0,10.926 H -6.822 V 0 Z m -0.346,16.19 c 3.239,0 4.869,1.459 4.869,4.351 0,2.917 -1.63,4.376 -4.869,4.376 H -6.822 V 16.19 Z M -12.385,30.182 H 0.148 c 3.04,0 5.438,-0.816 7.243,-2.422 1.804,-1.608 2.695,-3.882 2.695,-6.848 0,-1.385 -0.347,-2.744 -1.014,-4.054 -0.668,-1.31 -1.533,-2.25 -2.595,-2.794 1.68,-0.716 3.015,-1.853 3.979,-3.435 0.964,-1.582 1.458,-3.411 1.458,-5.463 0,-3.312 -0.988,-5.883 -2.941,-7.713 C 7.02,-4.351 4.276,-5.266 0.766,-5.266 h -13.151 z"
             style="fill:#f9f9f9;fill-opacity:1;fill-rule:nonzero;stroke:none;stroke-width:1.95612"
             id="path972" /></g><g
           id="g974"
           transform="translate(270.4268,335.2109)"
           style="stroke-width:1.95612;fill:#f9f9f9"><path
             d="M 0,0 H 20.986 V -5.265 H 5.562 v -8.726 h 12.459 v -5.265 H 5.562 v -10.926 h 15.943 v -5.265 H 0 Z"
             style="fill:#f9f9f9;fill-opacity:1;fill-rule:nonzero;stroke:none;stroke-width:1.95612"
             id="path976" /></g><g
           id="g978"
           transform="translate(353.3018,317.4873)"
           style="stroke-width:1.95612;fill:#f9f9f9"><path
             d="m 0,0 c 0,-4.178 1.013,-7.366 3.016,-9.566 2.003,-2.201 4.523,-3.288 7.563,-3.288 3.041,0 5.563,1.087 7.565,3.288 2.002,2.2 3.015,5.388 3.015,9.566 0,4.178 -1.013,7.366 -3.015,9.566 -2.002,2.201 -4.524,3.288 -7.565,3.288 -3.04,0 -5.56,-1.087 -7.563,-3.288 C 1.013,7.366 0,4.178 0,0 m -5.686,0 c 0,5.76 1.558,10.233 4.672,13.373 3.14,3.164 6.995,4.746 11.57,4.746 4.597,0 8.428,-1.582 11.568,-4.746 C 25.263,10.233 26.82,5.76 26.82,0 c 0,-5.76 -1.557,-10.233 -4.696,-13.397 -3.115,-3.14 -6.971,-4.722 -11.568,-4.722 -4.575,0 -8.43,1.582 -11.57,4.722 C -4.153,-10.233 -5.686,-5.76 -5.686,0"
             style="fill:#f9f9f9;fill-opacity:1;fill-rule:nonzero;stroke:none;stroke-width:1.95612"
             id="path980" /></g><g
           id="g982"
           transform="translate(459.8096,332.5908)"
           style="stroke-width:1.95612;fill:#f9f9f9"><path
             d="m 0,0 c 2.497,-2.002 4.104,-4.647 4.845,-7.91 l -5.092,-1.582 c -1.681,4.82 -4.697,7.243 -9.023,7.243 -3.188,0 -5.759,-1.113 -7.761,-3.313 -1.978,-2.2 -2.966,-5.388 -2.966,-9.542 0,-4.251 0.988,-7.464 2.941,-9.616 1.977,-2.15 4.573,-3.237 7.786,-3.237 2.646,0 4.697,0.766 6.156,2.299 1.458,1.532 2.323,3.46 2.546,5.784 H -7.44 v 4.919 H 5.019 V -32.827 H 0.148 l -0.395,4.4 c -0.742,-1.286 -1.903,-2.398 -3.51,-3.362 -1.582,-0.964 -3.51,-1.434 -5.809,-1.434 -4.474,0 -8.281,1.558 -11.42,4.648 -3.14,3.09 -4.697,7.589 -4.697,13.447 0,5.883 1.582,10.382 4.746,13.472 3.189,3.114 7.07,4.672 11.667,4.672 C -5.562,3.016 -2.472,2.002 0,0"
             style="fill:#f9f9f9;fill-opacity:1;fill-rule:nonzero;stroke:none;stroke-width:1.95612"
             id="path984" /></g><g
           id="g986"
           transform="translate(534.8262,320.9238)"
           style="stroke-width:1.95612;fill:#f9f9f9"><path
             d="M 0,0 C 2.842,0 4.672,1.458 4.672,4.498 4.672,7.539 2.842,9.022 0,9.022 H -6.971 V 0 Z m -12.533,14.287 h 12.385 c 3.312,0 5.882,-0.89 7.712,-2.62 1.854,-1.755 2.768,-4.128 2.768,-7.169 0,-4.845 -2.496,-8.206 -6.871,-9.368 L 13.67,-21.16 H 7.094 L -2.867,-5.266 H -6.971 V -21.16 h -5.562 z"
             style="fill:#f9f9f9;fill-opacity:1;fill-rule:nonzero;stroke:none;stroke-width:1.95612"
             id="path988" /></g><g
           id="g990"
           transform="translate(621.0635,313.8291)"
           style="stroke-width:1.95612;fill:#f9f9f9"><path
             d="M 0,0 -4.647,14.337 -9.319,0 Z m -7.292,21.382 h 5.266 L 10.283,-14.065 H 4.598 l -2.917,8.799 h -12.657 l -2.941,-8.799 h -5.686 z"
             style="fill:#f9f9f9;fill-opacity:1;fill-rule:nonzero;stroke:none;stroke-width:1.95612"
             id="path992" /></g><g
           id="g994"
           transform="translate(696.0039,305.0293)"
           style="stroke-width:1.95612;fill:#f9f9f9"><path
             d="m 0,0 c 3.287,0 6.031,0.741 8.43,2.57 2.397,1.829 3.806,5.216 3.806,9.864 0,4.671 -1.409,8.083 -3.806,9.887 C 6.031,24.126 3.287,24.917 0,24.917 H -3.238 V 0 Z M -8.8,30.182 H 1.607 c 4.548,0 8.405,-1.533 11.569,-4.622 3.164,-3.066 4.746,-7.441 4.746,-13.102 C 17.922,6.797 16.34,2.422 13.176,-0.668 10.036,-3.733 6.18,-5.266 1.607,-5.266 H -8.8 Z"
             style="fill:#f9f9f9;fill-opacity:1;fill-rule:nonzero;stroke:none;stroke-width:1.95612"
             id="path996" /></g></g></g></g></svg>
